<svg width="24" height="24" viewBox="0 0 24 24" fill="none" xmlns="http://www.w3.org/2000/svg">
<path d="M4.75 12C4.75 7.99594 7.99594 4.75 12 4.75C16.0041 4.75 19.25 7.99594 19.25 12C19.25 16.0041 16.0041 19.25 12 19.25C7.99594 19.25 4.75 16.0041 4.75 12Z" stroke="#747488" stroke-width="1.5" stroke-linecap="round" stroke-linejoin="round"/>
<path d="M12.0009 13C11.4486 13.0008 11.0003 12.5537 10.9995 12.0014C10.9987 11.4491 11.4457 11.0008 11.998 11C12.5503 10.9992 12.9987 11.4462 12.9995 11.9985C13.0003 12.5508 12.5532 12.9992 12.0009 13Z" fill="#747488"/>
<path d="M16.0009 12.9942C15.4487 12.995 15.0003 12.548 14.9995 11.9957C14.9987 11.4434 15.4458 10.995 15.998 10.9942C16.5503 10.9934 16.9987 11.4405 16.9995 11.9928C17.0003 12.5451 16.5532 12.9934 16.0009 12.9942Z" fill="#747488"/>
<path d="M8.00093 13.0057C7.44863 13.0065 7.00029 12.5595 6.99949 12.0072C6.9987 11.4549 7.44575 11.0065 7.99805 11.0057C8.55035 11.0049 8.99869 11.452 8.99949 12.0043C9.00029 12.5566 8.55323 13.0049 8.00093 13.0057Z" fill="#747488"/>
</svg>
