<svg width="35" height="39" viewBox="0 0 35 39" fill="none" xmlns="http://www.w3.org/2000/svg">
<path d="M16.75 20.2988H13.25C12.1454 20.2988 11.25 19.4034 11.25 18.2988V7.79883C11.25 6.69426 12.1454 5.79883 13.25 5.79883H19.5L23.75 10.0488V12.2988" stroke="#DA0175" stroke-width="1.5" stroke-linecap="round" stroke-linejoin="round"/>
<path d="M22.5 15.7988V20.2988" stroke="#DA0175" stroke-width="1.5" stroke-linecap="round" stroke-linejoin="round"/>
<path d="M24.75 18.0488H20.25" stroke="#DA0175" stroke-width="1.5" stroke-linecap="round" stroke-linejoin="round"/>
<path d="M23.5 10.2988H19.25V6.04883" stroke="#DA0175" stroke-width="1.5" stroke-linecap="round" stroke-linejoin="round"/>
<path d="M3.112 33.1128C2.57333 33.1128 2.104 32.9982 1.704 32.7688C1.304 32.5342 0.997333 32.2008 0.784 31.7688C0.570667 31.3315 0.464 30.8168 0.464 30.2248C0.464 29.6382 0.570667 29.1288 0.784 28.6968C0.997333 28.2595 1.304 27.9262 1.704 27.6968C2.104 27.4622 2.57333 27.3448 3.112 27.3448C3.464 27.3448 3.79733 27.4008 4.112 27.5128C4.42667 27.6195 4.70133 27.7768 4.936 27.9848C5.03733 28.0648 5.088 28.1715 5.088 28.3048C5.088 28.4008 5.06133 28.4835 5.008 28.5528C4.95467 28.6168 4.89067 28.6488 4.816 28.6488C4.72533 28.6488 4.63733 28.6142 4.552 28.5448C4.296 28.3528 4.06133 28.2195 3.848 28.1448C3.64 28.0648 3.40267 28.0248 3.136 28.0248C2.54933 28.0248 2.09867 28.2142 1.784 28.5928C1.46933 28.9715 1.312 29.5155 1.312 30.2248C1.312 30.9395 1.46933 31.4862 1.784 31.8648C2.09867 32.2435 2.54933 32.4328 3.136 32.4328C3.392 32.4328 3.624 32.3928 3.832 32.3128C4.04533 32.2328 4.28533 32.0995 4.552 31.9128C4.65867 31.8435 4.74667 31.8088 4.816 31.8088C4.89067 31.8088 4.95467 31.8435 5.008 31.9128C5.06133 31.9768 5.088 32.0568 5.088 32.1528C5.088 32.2862 5.03733 32.3928 4.936 32.4728C4.70133 32.6808 4.42667 32.8408 4.112 32.9528C3.79733 33.0595 3.464 33.1128 3.112 33.1128ZM7.59194 33.1048C7.20794 33.1048 6.86927 33.0222 6.57594 32.8568C6.28794 32.6915 6.06394 32.4568 5.90394 32.1528C5.74927 31.8435 5.67194 31.4862 5.67194 31.0808C5.67194 30.6702 5.74927 30.3128 5.90394 30.0088C6.06394 29.6995 6.28794 29.4622 6.57594 29.2968C6.86927 29.1315 7.20794 29.0488 7.59194 29.0488C7.97594 29.0488 8.31194 29.1315 8.59994 29.2968C8.89327 29.4622 9.11727 29.6995 9.27194 30.0088C9.43194 30.3128 9.51194 30.6702 9.51194 31.0808C9.51194 31.4862 9.43194 31.8435 9.27194 32.1528C9.11727 32.4568 8.89327 32.6915 8.59994 32.8568C8.31194 33.0222 7.97594 33.1048 7.59194 33.1048ZM7.59194 32.4648C7.94927 32.4648 8.22127 32.3475 8.40794 32.1128C8.59994 31.8782 8.69594 31.5342 8.69594 31.0808C8.69594 30.6328 8.59994 30.2915 8.40794 30.0568C8.21594 29.8168 7.94394 29.6968 7.59194 29.6968C7.23994 29.6968 6.96794 29.8168 6.77594 30.0568C6.58394 30.2915 6.48794 30.6328 6.48794 31.0808C6.48794 31.5342 6.58127 31.8782 6.76794 32.1128C6.95994 32.3475 7.2346 32.4648 7.59194 32.4648ZM12.5076 29.0488C12.8489 29.0488 13.1502 29.1315 13.4116 29.2968C13.6729 29.4622 13.8756 29.6968 14.0196 30.0008C14.1689 30.3048 14.2436 30.6595 14.2436 31.0648C14.2436 31.4648 14.1689 31.8195 14.0196 32.1288C13.8756 32.4382 13.6702 32.6782 13.4036 32.8488C13.1422 33.0195 12.8436 33.1048 12.5076 33.1048C12.2142 33.1048 11.9556 33.0435 11.7316 32.9208C11.5076 32.7928 11.3369 32.6115 11.2196 32.3768V32.6968C11.2196 32.8142 11.1822 32.9102 11.1076 32.9848C11.0382 33.0542 10.9422 33.0888 10.8196 33.0888C10.6969 33.0888 10.5982 33.0542 10.5236 32.9848C10.4489 32.9102 10.4116 32.8142 10.4116 32.6968V27.7528C10.4116 27.6355 10.4489 27.5422 10.5236 27.4728C10.6036 27.4035 10.7049 27.3688 10.8276 27.3688C10.9449 27.3688 11.0382 27.4035 11.1076 27.4728C11.1822 27.5368 11.2196 27.6248 11.2196 27.7368V29.7848C11.3369 29.5502 11.5076 29.3688 11.7316 29.2408C11.9556 29.1128 12.2142 29.0488 12.5076 29.0488ZM12.3156 32.4648C12.6622 32.4648 12.9316 32.3422 13.1236 32.0968C13.3209 31.8515 13.4196 31.5075 13.4196 31.0648C13.4196 30.6275 13.3236 30.2915 13.1316 30.0568C12.9396 29.8168 12.6676 29.6968 12.3156 29.6968C11.9636 29.6968 11.6916 29.8168 11.4996 30.0568C11.3129 30.2968 11.2196 30.6382 11.2196 31.0808C11.2196 31.5235 11.3129 31.8648 11.4996 32.1048C11.6916 32.3448 11.9636 32.4648 12.3156 32.4648ZM17.1861 29.0648C17.4421 29.0488 17.5701 29.1582 17.5701 29.3928C17.5701 29.5102 17.5408 29.5982 17.4821 29.6568C17.4235 29.7155 17.3221 29.7502 17.1781 29.7608L16.9381 29.7848C16.6021 29.8168 16.3515 29.9342 16.1861 30.1368C16.0261 30.3395 15.9461 30.5848 15.9461 30.8728V32.7048C15.9461 32.8328 15.9088 32.9288 15.8341 32.9928C15.7595 33.0568 15.6635 33.0888 15.5461 33.0888C15.4288 33.0888 15.3301 33.0568 15.2501 32.9928C15.1755 32.9288 15.1381 32.8328 15.1381 32.7048V29.4488C15.1381 29.3262 15.1755 29.2328 15.2501 29.1688C15.3301 29.0995 15.4288 29.0648 15.5461 29.0648C15.6528 29.0648 15.7408 29.0995 15.8101 29.1688C15.8848 29.2328 15.9221 29.3235 15.9221 29.4408V29.8248C16.0288 29.5902 16.1835 29.4115 16.3861 29.2888C16.5888 29.1662 16.8181 29.0942 17.0741 29.0728L17.1861 29.0648ZM19.6844 29.0488C20.2017 29.0488 20.5857 29.1795 20.8364 29.4408C21.0924 29.7022 21.2204 30.0995 21.2204 30.6328V32.7048C21.2204 32.8275 21.1857 32.9235 21.1164 32.9928C21.047 33.0568 20.951 33.0888 20.8284 33.0888C20.711 33.0888 20.6177 33.0542 20.5484 32.9848C20.479 32.9155 20.4444 32.8222 20.4444 32.7048V32.4088C20.343 32.6328 20.191 32.8062 19.9884 32.9288C19.791 33.0462 19.559 33.1048 19.2924 33.1048C19.0364 33.1048 18.8017 33.0542 18.5884 32.9528C18.3804 32.8462 18.215 32.7022 18.0924 32.5208C17.9697 32.3395 17.9084 32.1342 17.9084 31.9048C17.903 31.6168 17.975 31.3928 18.1244 31.2328C18.2737 31.0675 18.5164 30.9502 18.8524 30.8808C19.1884 30.8062 19.655 30.7688 20.2524 30.7688H20.4364V30.5368C20.4364 30.2382 20.375 30.0222 20.2524 29.8888C20.1297 29.7555 19.9324 29.6888 19.6604 29.6888C19.4737 29.6888 19.2977 29.7128 19.1324 29.7608C18.967 29.8088 18.7857 29.8782 18.5884 29.9688C18.4444 30.0488 18.343 30.0888 18.2844 30.0888C18.2044 30.0888 18.1377 30.0595 18.0844 30.0008C18.0364 29.9422 18.0124 29.8675 18.0124 29.7768C18.0124 29.6968 18.0337 29.6275 18.0764 29.5688C18.1244 29.5048 18.199 29.4435 18.3004 29.3848C18.487 29.2835 18.7057 29.2035 18.9564 29.1448C19.207 29.0808 19.4497 29.0488 19.6844 29.0488ZM19.4364 32.5048C19.7297 32.5048 19.9697 32.4062 20.1564 32.2088C20.343 32.0062 20.4364 31.7475 20.4364 31.4328V31.2248H20.2924C19.8764 31.2248 19.5564 31.2435 19.3324 31.2808C19.1084 31.3182 18.9484 31.3822 18.8524 31.4728C18.7564 31.5582 18.7084 31.6835 18.7084 31.8488C18.7084 32.0408 18.7777 32.1982 18.9164 32.3208C19.055 32.4435 19.2284 32.5048 19.4364 32.5048ZM24.4296 29.0488C25.363 29.0488 25.8296 29.5742 25.8296 30.6248V32.7048C25.8296 32.8275 25.7923 32.9235 25.7176 32.9928C25.6483 33.0568 25.5496 33.0888 25.4216 33.0888C25.299 33.0888 25.2003 33.0542 25.1256 32.9848C25.0563 32.9155 25.0216 32.8222 25.0216 32.7048V30.6648C25.0216 30.3342 24.955 30.0915 24.8216 29.9368C24.6936 29.7822 24.491 29.7048 24.2136 29.7048C23.8883 29.7048 23.627 29.8062 23.4296 30.0088C23.2323 30.2115 23.1336 30.4835 23.1336 30.8248V32.7048C23.1336 32.8222 23.0963 32.9155 23.0216 32.9848C22.9523 33.0542 22.8563 33.0888 22.7336 33.0888C22.611 33.0888 22.5123 33.0542 22.4376 32.9848C22.363 32.9155 22.3256 32.8222 22.3256 32.7048V29.4488C22.3256 29.3368 22.363 29.2462 22.4376 29.1768C22.5176 29.1022 22.6163 29.0648 22.7336 29.0648C22.851 29.0648 22.9443 29.0995 23.0136 29.1688C23.083 29.2382 23.1176 29.3288 23.1176 29.4408V29.7688C23.2456 29.5342 23.4243 29.3555 23.6536 29.2328C23.883 29.1102 24.1416 29.0488 24.4296 29.0488ZM29.823 32.0568C29.8977 32.0568 29.959 32.0888 30.007 32.1528C30.055 32.2115 30.079 32.2862 30.079 32.3768C30.079 32.4515 30.0577 32.5208 30.015 32.5848C29.9777 32.6435 29.911 32.7048 29.815 32.7688C29.6763 32.8595 29.5163 32.9342 29.335 32.9928C29.1537 33.0515 28.9697 33.0862 28.783 33.0968L28.743 33.4008C28.8177 33.3848 28.8843 33.3768 28.943 33.3768C29.1083 33.3768 29.247 33.4248 29.359 33.5208C29.4763 33.6168 29.535 33.7528 29.535 33.9288C29.535 34.1262 29.4497 34.2862 29.279 34.4088C29.1083 34.5368 28.8657 34.6008 28.551 34.6008C28.343 34.6008 28.159 34.5715 27.999 34.5128C27.903 34.4755 27.855 34.4088 27.855 34.3128C27.855 34.2488 27.8763 34.1955 27.919 34.1528C27.967 34.1102 28.0283 34.0995 28.103 34.1208C28.263 34.1635 28.4123 34.1848 28.551 34.1848C28.6897 34.1848 28.7963 34.1635 28.871 34.1208C28.9457 34.0782 28.983 34.0142 28.983 33.9288C28.983 33.8648 28.9617 33.8142 28.919 33.7768C28.8817 33.7448 28.8257 33.7288 28.751 33.7288C28.6977 33.7288 28.6257 33.7395 28.535 33.7608C28.4443 33.7822 28.3883 33.7928 28.367 33.7928C28.3243 33.7928 28.2843 33.7768 28.247 33.7448C28.215 33.7182 28.2017 33.6808 28.207 33.6328L28.271 33.0808C27.791 33.0062 27.4097 32.7928 27.127 32.4408C26.8497 32.0888 26.711 31.6408 26.711 31.0968C26.711 30.6915 26.791 30.3342 26.951 30.0248C27.1163 29.7155 27.3457 29.4755 27.639 29.3048C27.9323 29.1342 28.2683 29.0488 28.647 29.0488C28.8497 29.0488 29.0523 29.0782 29.255 29.1368C29.463 29.1955 29.647 29.2755 29.807 29.3768C29.9777 29.4942 30.063 29.6302 30.063 29.7848C30.063 29.8755 30.039 29.9528 29.991 30.0168C29.943 30.0755 29.8817 30.1048 29.807 30.1048C29.759 30.1048 29.711 30.0942 29.663 30.0728C29.615 30.0462 29.5537 30.0088 29.479 29.9608C29.3457 29.8755 29.2203 29.8115 29.103 29.7688C28.991 29.7208 28.855 29.6968 28.695 29.6968C28.3323 29.6968 28.0497 29.8195 27.847 30.0648C27.6497 30.3102 27.551 30.6515 27.551 31.0888C27.551 31.5262 27.6497 31.8648 27.847 32.1048C28.0443 32.3395 28.3243 32.4568 28.687 32.4568C28.847 32.4568 28.9883 32.4328 29.111 32.3848C29.2337 32.3368 29.359 32.2728 29.487 32.1928C29.5457 32.1555 29.6043 32.1235 29.663 32.0968C29.7217 32.0702 29.775 32.0568 29.823 32.0568ZM32.4422 29.0488C32.9595 29.0488 33.3435 29.1795 33.5942 29.4408C33.8502 29.7022 33.9782 30.0995 33.9782 30.6328V32.7048C33.9782 32.8275 33.9435 32.9235 33.8742 32.9928C33.8049 33.0568 33.7089 33.0888 33.5862 33.0888C33.4689 33.0888 33.3755 33.0542 33.3062 32.9848C33.2369 32.9155 33.2022 32.8222 33.2022 32.7048V32.4088C33.1009 32.6328 32.9489 32.8062 32.7462 32.9288C32.5489 33.0462 32.3169 33.1048 32.0502 33.1048C31.7942 33.1048 31.5595 33.0542 31.3462 32.9528C31.1382 32.8462 30.9729 32.7022 30.8502 32.5208C30.7275 32.3395 30.6662 32.1342 30.6662 31.9048C30.6609 31.6168 30.7329 31.3928 30.8822 31.2328C31.0315 31.0675 31.2742 30.9502 31.6102 30.8808C31.9462 30.8062 32.4129 30.7688 33.0102 30.7688H33.1942V30.5368C33.1942 30.2382 33.1329 30.0222 33.0102 29.8888C32.8875 29.7555 32.6902 29.6888 32.4182 29.6888C32.2315 29.6888 32.0555 29.7128 31.8902 29.7608C31.7249 29.8088 31.5435 29.8782 31.3462 29.9688C31.2022 30.0488 31.1009 30.0888 31.0422 30.0888C30.9622 30.0888 30.8955 30.0595 30.8422 30.0008C30.7942 29.9422 30.7702 29.8675 30.7702 29.7768C30.7702 29.6968 30.7915 29.6275 30.8342 29.5688C30.8822 29.5048 30.9569 29.4435 31.0582 29.3848C31.2449 29.2835 31.4635 29.2035 31.7142 29.1448C31.9649 29.0808 32.2075 29.0488 32.4422 29.0488ZM32.1942 32.5048C32.4875 32.5048 32.7275 32.4062 32.9142 32.2088C33.1009 32.0062 33.1942 31.7475 33.1942 31.4328V31.2248H33.0502C32.6342 31.2248 32.3142 31.2435 32.0902 31.2808C31.8662 31.3182 31.7062 31.3822 31.6102 31.4728C31.5142 31.5582 31.4662 31.6835 31.4662 31.8488C31.4662 32.0408 31.5355 32.1982 31.6742 32.3208C31.8129 32.4435 31.9862 32.5048 32.1942 32.5048Z" fill="#DA0175"/>
</svg>
